<?xml version="1.0" encoding="UTF-8" standalone="no"?>
<!-- Generator: Adobe Illustrator 17.0.0, SVG Export Plug-In . SVG Version: 6.00 Build 0)  -->

<svg
   version="1.1"
   x="0px"
   y="0px"
   width="512px"
   height="512px"
   viewBox="0 0 512 512"
   enable-background="new 0 0 512 512"
   xml:space="preserve"
   id="svg167"
   sodipodi:docname="icon.svg"
   inkscape:version="1.1.2 (b8e25be833, 2022-02-05)"
   xmlns:inkscape="http://www.inkscape.org/namespaces/inkscape"
   xmlns:sodipodi="http://sodipodi.sourceforge.net/DTD/sodipodi-0.dtd"
   xmlns:xlink="http://www.w3.org/1999/xlink"
   xmlns="http://www.w3.org/2000/svg"
   xmlns:svg="http://www.w3.org/2000/svg"><defs
   id="defs171" /><sodipodi:namedview
   id="namedview169"
   pagecolor="#ffffff"
   bordercolor="#666666"
   borderopacity="1.0"
   inkscape:pageshadow="2"
   inkscape:pageopacity="0.0"
   inkscape:pagecheckerboard="0"
   showgrid="false"
   inkscape:zoom="1.0917969"
   inkscape:cx="256"
   inkscape:cy="256"
   inkscape:window-width="1366"
   inkscape:window-height="740"
   inkscape:window-x="-8"
   inkscape:window-y="-8"
   inkscape:window-maximized="1"
   inkscape:current-layer="svg167" />
<g
   id="famous_places">
	<g
   id="Pyramid">
	</g>
	<g
   id="Colloseum">
	</g>
	<g
   id="Mount_Fuji">
	</g>
	<g
   id="Great_Wall_of_China">
	</g>
	<g
   id="Stonehenge">
	</g>
	<g
   id="Golden_Gate_Bridge">
	</g>
	<g
   id="Christ_the_Redeemer">
	</g>
	<g
   id="Statue_of_Liberty">
	</g>
	<g
   id="Taj_Mahal">
	</g>
	<g
   id="Eiffel_tower">
	</g>
</g>
<g
   id="camping">
	<g
   id="mug">
	</g>
	<g
   id="hook">
	</g>
	<g
   id="Swiss_knife">
	</g>
	<g
   id="flashlight">
	</g>
	<g
   id="lantern">
	</g>
	<g
   id="campfire">
	</g>
	<g
   id="beanie">
		<g
   id="g75">
			<circle
   fill="#38D6BD"
   cx="256"
   cy="111.212"
   r="45.951"
   id="circle19" />
			<path
   fill="#2FB49F"
   d="M297.028,131.897c-13.101-3.437-26.849-5.274-41.028-5.274h0c-14.179,0-27.927,1.837-41.028,5.274     c7.57,14.984,23.094,25.266,41.028,25.266C273.935,157.163,289.458,146.882,297.028,131.897z"
   id="path21" />
			<path
   fill="#38D6BD"
   d="M417.242,421.743H94.758V302.532c0-89.051,72.19-161.242,161.242-161.242h0     c89.051,0,161.242,72.19,161.242,161.242V421.743z"
   id="path23" />
			<g
   id="g39">
				<defs
   id="defs26">
					<path
   id="SVGID_3_"
   d="M417.242,421.743H94.758V302.532c0-89.051,72.19-161.242,161.242-161.242h0       c89.051,0,161.242,72.19,161.242,161.242V421.743z" />
				</defs>
				<clipPath
   id="SVGID_2_">
					<use
   xlink:href="#SVGID_3_"
   overflow="visible"
   id="use28" />
				</clipPath>
				<g
   clip-path="url(#SVGID_2_)"
   id="g37">
					<line
   fill="none"
   stroke="#2FB49F"
   stroke-width="10"
   stroke-miterlimit="10"
   x1="256"
   y1="134.567"
   x2="256"
   y2="413.567"
   id="line31" />
					<path
   fill="none"
   stroke="#2FB49F"
   stroke-width="10"
   stroke-miterlimit="10"
   d="M169.91,351.284       c0,0,10.756-216.333,93.333-216.333l-14-18.104c0,0-125.333,19.104-140.667,234.437"
   id="path33" />
					<path
   fill="none"
   stroke="#2FB49F"
   stroke-width="10"
   stroke-miterlimit="10"
   d="M342.09,351.284       c0,0-10.756-216.333-93.333-216.333l14-18.104c0,0,125.333,19.104,140.667,234.437"
   id="path35" />
				</g>
			</g>
			<path
   fill="#2FB49F"
   d="M417,328.444c-2-0.332-4.095-0.877-6.33-0.877H104.33c-3.293,0-6.33,0.757-9.33,1.465v92.535h322V328.444     z"
   id="path41" />
			<path
   fill="#38D6BD"
   d="M409.17,446.738H102.83c-23.511,0-42.57-19.059-42.57-42.57v-20.993c0-23.511,19.059-42.57,42.57-42.57     h306.34c23.511,0,42.57,19.059,42.57,42.57v20.993C451.74,427.679,432.681,446.738,409.17,446.738z"
   id="path43" />
			<g
   id="g73">
				<defs
   id="defs46">
					<path
   id="SVGID_5_"
   d="M409.17,446.738H102.83c-23.511,0-42.57-19.059-42.57-42.57v-20.993c0-23.511,19.059-42.57,42.57-42.57       h306.34c23.511,0,42.57,19.059,42.57,42.57v20.993C451.74,427.679,432.681,446.738,409.17,446.738z" />
				</defs>
				<clipPath
   id="SVGID_4_">
					<use
   xlink:href="#SVGID_5_"
   overflow="visible"
   id="use48" />
				</clipPath>
				<g
   clip-path="url(#SVGID_4_)"
   id="g71">
					<g
   id="g59">
						<line
   fill="none"
   stroke="#2FB49F"
   stroke-width="10"
   stroke-miterlimit="10"
   x1="256"
   y1="316.567"
   x2="256"
   y2="475.567"
   id="line51" />
						<line
   fill="none"
   stroke="#2FB49F"
   stroke-width="10"
   stroke-miterlimit="10"
   x1="202"
   y1="316.567"
   x2="202"
   y2="475.567"
   id="line53" />
						<line
   fill="none"
   stroke="#2FB49F"
   stroke-width="10"
   stroke-miterlimit="10"
   x1="148"
   y1="316.567"
   x2="148"
   y2="475.567"
   id="line55" />
						<line
   fill="none"
   stroke="#2FB49F"
   stroke-width="10"
   stroke-miterlimit="10"
   x1="94"
   y1="316.567"
   x2="94"
   y2="475.567"
   id="line57" />
					</g>
					<g
   id="g69">
						<line
   fill="none"
   stroke="#2FB49F"
   stroke-width="10"
   stroke-miterlimit="10"
   x1="416"
   y1="316.567"
   x2="416"
   y2="475.567"
   id="line61" />
						<line
   fill="none"
   stroke="#2FB49F"
   stroke-width="10"
   stroke-miterlimit="10"
   x1="362"
   y1="316.567"
   x2="362"
   y2="475.567"
   id="line63" />
						<line
   fill="none"
   stroke="#2FB49F"
   stroke-width="10"
   stroke-miterlimit="10"
   x1="309"
   y1="316.567"
   x2="309"
   y2="475.567"
   id="line65" />
						<line
   fill="none"
   stroke="#2FB49F"
   stroke-width="10"
   stroke-miterlimit="10"
   x1="256"
   y1="316.567"
   x2="256"
   y2="475.567"
   id="line67" />
					</g>
				</g>
			</g>
		</g>
	</g>
	<g
   id="rope">
	</g>
	<g
   id="boot">
	</g>
	<g
   id="axe">
	</g>
</g>
<g
   id="hotel_1_">
	<g
   id="towel">
	</g>
	<g
   id="phone">
	</g>
	<g
   id="pool">
	</g>
	<g
   id="food_service">
	</g>
	<g
   id="wifi">
	</g>
	<g
   id="bed">
	</g>
	<g
   id="door">
	</g>
	<g
   id="key">
	</g>
	<g
   id="do_not_disturb">
	</g>
	<g
   id="bell">
	</g>
</g>
<g
   id="winter">
	<g
   id="snowman">
	</g>
	<g
   id="snow_mountain">
	</g>
	<g
   id="reindeer">
	</g>
	<g
   id="winter_tree">
	</g>
	<g
   id="lift">
	</g>
	<g
   id="beanie__x26__google">
	</g>
	<g
   id="ski">
	</g>
	<g
   id="snowboard">
	</g>
	<g
   id="snowboading">
	</g>
	<g
   id="skiing">
	</g>
</g>
<g
   id="general_travelling">
	<g
   id="dinner_set">
	</g>
	<g
   id="polaroid">
	</g>
	<g
   id="camera">
	</g>
	<g
   id="calendar">
	</g>
	<g
   id="calendar_single">
	</g>
	<g
   id="shopping_bag">
	</g>
	<g
   id="watch">
	</g>
	<g
   id="alarm_clock">
	</g>
	<g
   id="credit_card">
	</g>
	<g
   id="road_sign">
	</g>
	<g
   id="hotel">
	</g>
	<g
   id="money">
	</g>
	<g
   id="sunglass">
	</g>
	<g
   id="cocktail">
	</g>
	<g
   id="compass">
	</g>
	<g
   id="tent">
	</g>
	<g
   id="backpack">
	</g>
	<g
   id="map">
	</g>
	<g
   id="ticket_1_">
	</g>
	<g
   id="passport">
	</g>
	<g
   id="luggage">
	</g>
	<g
   id="globe">
	</g>
	<g
   id="suitcase">
	</g>
</g>
<g
   id="vehicles">
	<g
   id="trailer">
	</g>
	<g
   id="airplane">
	</g>
	<g
   id="yatch">
	</g>
	<g
   id="taxi">
	</g>
	<g
   id="hot_air_ballon">
	</g>
	<g
   id="bus">
	</g>
	<g
   id="train">
	</g>
</g>
<g
   id="summer">
	<g
   id="postcard">
	</g>
	<g
   id="bikini">
	</g>
	<g
   id="flipflop">
	</g>
	<g
   id="plane_around_the_globe">
	</g>
	<g
   id="binocular">
	</g>
	<g
   id="beach_table">
	</g>
	<g
   id="sun_hat">
	</g>
	<g
   id="beach_bag">
	</g>
	<g
   id="sea__x26__wave">
	</g>
	<g
   id="beach">
	</g>
	<g
   id="beach_ball">
	</g>
	<g
   id="jetski">
	</g>
	<g
   id="sandcastle">
	</g>
	<g
   id="lifeguard_male">
	</g>
	<g
   id="lifeguard_female">
	</g>
	<g
   id="lighthouse">
	</g>
	<g
   id="hammok">
	</g>
	<g
   id="beach_chair__x26__umbrella">
	</g>
	<g
   id="lifeguard">
	</g>
	<g
   id="suncream">
	</g>
	<g
   id="starfish">
	</g>
	<g
   id="beach_bar">
	</g>
	<g
   id="bucket__x26__shovel">
	</g>
	<g
   id="palm_tree">
	</g>
	<g
   id="shark_warning">
	</g>
	<g
   id="surfboard">
	</g>
	<g
   id="swimming_trunks">
	</g>
	<g
   id="coconut_drink">
	</g>
	<g
   id="beach_chair__x26__towel">
	</g>
	<g
   id="coconut_tree">
	</g>
</g>
<path
   style="fill:#ff00ff;fill-opacity:1;stroke-width:0.915921"
   d="m 178.01899,320.35505 c 0.89543,-10.593 4.91459,-37.29765 8.0315,-53.36399 10.86721,-56.01597 26.61208,-94.13967 46.70876,-113.09786 5.08972,-4.80138 15.38989,-11.46744 17.7191,-11.46744 0.26625,0 0.48408,41.62862 0.48408,92.50805 v 92.50805 h -36.77125 -36.77125 z"
   id="path3387" /><path
   style="fill:#ff00ff;fill-opacity:1;stroke-width:0.915921"
   d="m 261.03757,234.93381 c 0,-50.87943 0.21783,-92.50805 0.48408,-92.50805 2.35469,0 12.66082,6.69572 17.87013,11.60992 19.50657,18.40151 35.58016,57.08299 46.17595,111.12353 3.30568,16.8596 7.29858,43.20198 8.36466,55.18426 l 0.63155,7.09839 h -36.76319 -36.76318 z"
   id="path3463" /><path
   style="fill:#ff00ff;fill-opacity:1;stroke-width:0.915921"
   d="m 344.51002,317.59571 c -9.30355,-81.63697 -28.47243,-140.53598 -55.03867,-169.11387 -2.90113,-3.12081 -3.60696,-4.31918 -2.33003,-3.95596 1.00752,0.28658 5.94254,1.61794 10.96672,2.95859 5.02417,1.34064 12.77375,3.89397 17.22128,5.67406 7.79214,3.11875 8.38475,3.5689 16.28379,12.36948 32.13269,35.80005 51.92223,82.34582 61.83029,145.42727 1.22642,7.80823 2.23092,14.71198 2.23222,15.34168 0.002,0.88804 -5.61156,1.1449 -25.02056,1.1449 h -25.02294 z"
   id="path3502" /><path
   style="fill:#ff00ff;fill-opacity:1;stroke-width:0.915921"
   d="m 411.47764,327.62297 c -2.64472,-0.15226 -4.80859,-0.43878 -4.80859,-0.6367 0,-1.66714 -3.9887,-26.82615 -5.51835,-34.80738 -7.82895,-40.84898 -22.19693,-78.50339 -40.80328,-106.93381 -3.21443,-4.91163 -5.47638,-8.93023 -5.02656,-8.93023 1.37318,0 19.65997,17.90156 25.01631,24.48931 15.764,19.3881 27.55254,43.68422 32.59929,67.18693 2.91432,13.572 3.92075,25.62961 3.62438,43.42215 l -0.27461,16.48658 z"
   id="path3541" /><path
   style="fill:#ff00ff;fill-opacity:1;stroke-width:0.915921"
   d="m 214.47469,129.88147 c -1.8573,-3.47039 -3.81279,-13.09494 -3.81279,-18.76579 0,-12.392771 4.39686,-22.605087 13.72942,-31.888489 18.7461,-18.647346 47.64225,-17.834324 65.32946,1.838108 8.27882,9.208042 12.18654,20.514161 11.38386,32.936591 -0.53554,8.28791 -3.2726,17.0408 -5.26206,16.82767 -0.75564,-0.0809 -6.31986,-1.05536 -12.36494,-2.16535 -15.1729,-2.78605 -39.33564,-2.84498 -54.51807,-0.13296 -5.80462,1.03687 -11.23419,2.14629 -12.06571,2.46537 -0.95973,0.36828 -1.84322,-0.039 -2.41917,-1.11515 z"
   id="path3580" /><path
   style="fill:#ff00ff;fill-opacity:1;stroke-width:0.915921"
   d="m 116.32437,326.29696 c 0.001,-0.6297 1.00652,-7.55128 2.23382,-15.38129 9.4904,-60.5476 28.57162,-106.75169 58.42395,-141.47023 10.91258,-12.69145 10.88271,-12.66627 19.07128,-16.07136 5.27578,-2.19384 28.00646,-9.11648 29.93425,-9.11648 0.19732,0 -1.95173,2.58322 -4.77568,5.74049 -25.3057,28.29257 -44.23617,86.4231 -53.23669,163.47597 l -1.63158,13.9678 h -25.01086 c -19.39933,0 -25.01032,-0.25687 -25.00849,-1.1449 z"
   id="path3619" /><path
   style="fill:#ff00ff;fill-opacity:1;stroke-width:0.915921"
   d="m 95.273695,310.22519 c 0.01872,-18.8963 1.315272,-32.09543 4.439091,-45.19087 5.462944,-22.90135 16.722034,-45.54163 31.941874,-64.23016 5.34816,-6.56704 23.65266,-24.48931 25.01159,-24.48931 0.44274,0 -2.08094,4.43077 -5.60818,9.84615 -21.53533,33.06334 -36.25893,75.98514 -43.88813,127.94132 -1.03085,7.02032 -1.96938,12.83591 -2.08562,12.92355 -0.11623,0.0876 -2.3752,0.40374 -5.01992,0.70246 l -4.808586,0.54314 z"
   id="path3658" /><path
   style="fill:#ff00ff;fill-opacity:1;stroke-width:0.915921"
   d="m 99.83542,393.84615 v -52.66547 h 21.52415 21.52415 v 52.66547 52.66548 H 121.35957 99.83542 Z"
   id="path3697" /><path
   style="fill:#ff00ff;fill-opacity:1;stroke-width:0.915921"
   d="m 81.921073,440.55295 c -10.443588,-6.16239 -18.314967,-17.4033 -20.477601,-29.24353 -1.462614,-8.00768 -1.230699,-30.07765 0.388215,-36.94414 1.761898,-7.47295 5.130341,-14.01491 9.896454,-19.22023 3.964647,-4.33 13.71708,-11.21661 15.884343,-11.21661 1.016824,0 1.231881,8.71441 1.231881,49.91771 0,27.45474 -0.333371,49.91771 -0.740823,49.91771 -0.407453,0 -3.189564,-1.44491 -6.182469,-3.21091 z"
   id="path3736" /><path
   style="fill:#ff00ff;fill-opacity:1;stroke-width:0.915921"
   d="m 152.95886,393.84615 v -52.66547 h 21.98211 21.98211 v 52.66547 52.66548 h -21.98211 -21.98211 z"
   id="path3775" /><path
   style="fill:#ff00ff;fill-opacity:1;stroke-width:0.915921"
   d="m 206.99821,393.84615 v -52.66547 h 21.98211 21.98211 v 52.66547 52.66548 h -21.98211 -21.98211 z"
   id="path3814" /><path
   style="fill:#ff00ff;fill-opacity:1;stroke-width:0.915921"
   d="m 261.03757,393.84615 v -52.66547 h 21.06619 21.06619 v 52.66547 52.66548 h -21.06619 -21.06619 z"
   id="path3853" /><path
   style="fill:#ff00ff;fill-opacity:1;stroke-width:0.915921"
   d="m 314.161,393.84615 v -52.66547 h 21.06619 21.06619 v 52.66547 52.66548 H 335.22719 314.161 Z"
   id="path3892" /><path
   style="fill:#ff00ff;fill-opacity:1;stroke-width:0.915921"
   d="m 367.28444,393.84615 v -52.66547 h 21.52415 21.52415 v 52.66547 52.66548 h -21.52415 -21.52415 z"
   id="path3931" /><path
   style="fill:#38d6bd;fill-opacity:1;stroke-width:0.915921"
   d="m 421.32379,393.79672 v -50.90764 l 2.06083,0.61479 c 3.88519,1.15905 10.30641,5.34524 14.99817,9.77777 5.58108,5.27273 9.85478,12.89141 11.75608,20.95745 1.64824,6.99245 1.89593,28.97692 0.41766,37.07033 -2.6019,14.24518 -12.37777,26.35249 -25.80928,31.96454 l -3.42346,1.43041 z"
   id="path3970" /><path
   style="fill:#38d6bd;fill-opacity:1;stroke-width:0.915921"
   d="m 421.32379,393.79672 v -50.90764 l 2.06083,0.61479 c 3.88519,1.15905 10.30641,5.34524 14.99817,9.77777 5.58108,5.27273 9.85478,12.89141 11.75608,20.95745 1.81802,7.71271 1.85439,30.1842 0.0625,38.64027 -2.88969,13.63705 -12.33172,24.91169 -25.45417,30.3946 l -3.42346,1.43041 z"
   id="path9108" /><path
   style="fill:#ff00ff;fill-opacity:1;stroke-width:0.915921"
   d="m 421.32379,393.79672 v -50.90764 l 2.06083,0.61479 c 3.92116,1.16978 10.32402,5.36188 15.14205,9.91385 5.53284,5.22731 10.6836,14.78377 12.10771,22.464 1.36421,7.35719 1.10212,29.75329 -0.43296,36.99764 -2.88969,13.63705 -12.33172,24.91169 -25.45417,30.3946 l -3.42346,1.43041 z"
   id="path9147" /><path
   style="fill:#ff00ff;fill-opacity:1;stroke-width:0.915921"
   d="m 214.4164,128.45796 c -2.06952,-5.46945 -3.04429,-12.97796 -2.67839,-20.63111 0.34672,-7.25197 0.81231,-9.123986 3.73262,-15.007857 5.26106,-10.600044 14.80703,-19.4689 25.54139,-23.729691 6.12749,-2.432184 16.9783,-3.260547 23.89025,-1.823808 15.94464,3.314297 30.02648,16.696385 34.27302,32.569926 2.37466,8.87645 0.84399,26.13326 -2.60349,29.35198 -0.9317,0.86987 -3.25684,0.72025 -10.80436,-0.69528 -14.44331,-2.70882 -46.14312,-2.6786 -59.53488,0.0567 -11.72638,2.39519 -10.873,2.40176 -11.81616,-0.0909 z"
   id="path9223" /><path
   style="fill:#ff00ff;fill-opacity:1;stroke-width:0.915921"
   d="m 214.29345,128.14448 c -2.08971,-5.49637 -2.90882,-11.94323 -2.55252,-20.08982 0.32798,-7.49906 0.75377,-9.242808 3.72472,-15.254113 5.24234,-10.607151 14.69776,-19.388444 25.54637,-23.725033 7.49527,-2.996132 19.06281,-3.420269 27.0571,-0.992077 12.63059,3.836423 22.65512,12.532899 28.48925,24.714978 2.75041,5.743044 3.27249,7.905085 3.64934,15.112705 0.48664,9.30716 -0.87299,17.88298 -3.27923,20.68375 -1.53336,1.78477 -1.6124,1.78421 -11.619,-0.0826 -7.96149,-1.48528 -14.01419,-1.8935 -28.85152,-1.94585 -17.96065,-0.0634 -22.28014,0.34051 -38.22033,3.57374 -2.64581,0.53667 -3.06132,0.32643 -3.94418,-1.99567 z"
   id="path9262" /><path
   style="fill:#ff00ff;fill-opacity:1;stroke-width:0.915921"
   d="m 214.29345,128.14448 c -2.08629,-5.48737 -2.90875,-11.93527 -2.54675,-19.96597 0.29878,-6.6282 0.89267,-9.465392 2.8893,-13.803187 5.22844,-11.359047 15.00037,-20.754455 26.27042,-25.258186 7.60555,-3.039322 19.11731,-3.477412 27.1627,-1.0337 12.63059,3.836423 22.65512,12.532899 28.48925,24.714978 2.75041,5.743044 3.27249,7.905085 3.64934,15.112705 0.48654,9.30529 -0.87224,17.87847 -3.27923,20.69027 -1.53554,1.79378 -1.59822,1.79357 -11.619,-0.0379 -7.81254,-1.4279 -14.29178,-1.8612 -28.85152,-1.92943 -17.90161,-0.0839 -22.68397,0.35481 -38.22033,3.50613 -2.64581,0.53667 -3.06132,0.32643 -3.94418,-1.99567 z"
   id="path9301" /><path
   style="fill:#f9f9f9;fill-opacity:1;stroke-width:0.915921"
   d="m 94.110912,445.38834 -4.350626,-0.90672 v -50.75745 -50.75744 l 2.747764,-0.54956 c 2.727813,-0.54556 2.747764,-0.59449 2.747764,-6.73968 0,-6.82878 0.439489,-7.27937 7.127136,-7.30721 1.65302,-0.007 3.18808,-0.5277 3.41125,-1.1574 0.22317,-0.6297 1.24638,-6.89174 2.2738,-13.91565 7.59706,-51.93689 22.59531,-94.87396 44.93304,-128.63454 4.01218,-6.06388 8.67038,-12.12278 10.35156,-13.46423 2.8889,-2.3051 21.214,-13.20204 22.20155,-13.20204 0.25374,0 -2.62405,3.46788 -6.39509,7.7064 -31.96392,35.92642 -51.45755,82.24633 -61.51461,146.16838 -1.2285,7.80823 -2.2347,14.7184 -2.236,15.35594 -0.002,0.91335 5.47916,1.10759 25.84593,0.91592 l 25.84829,-0.24324 1.62771,-14.19678 c 6.99192,-60.98299 21.45622,-113.77137 39.65158,-144.71088 5.24841,-8.92444 15.2653,-21.52947 19.02039,-23.93485 l 2.95185,-1.89085 -2.85134,0.49759 c -2.29103,0.39982 -3.29701,0.0121 -5.1192,-1.97321 -2.91747,-3.17858 -6.22624,-8.00979 -6.22624,-9.0911 0,-1.25973 14.43732,-3.84525 28.08103,-5.02892 9.04984,-0.78512 14.98252,-0.78365 23.81396,0.006 13.40384,1.19833 27.79017,3.7864 27.79017,4.99938 0,1.14036 -5.00812,8.30492 -6.90663,9.88053 -0.86112,0.71467 -2.85369,1.18363 -4.42792,1.04213 l -2.86223,-0.25727 2.748,1.72937 c 1.51141,0.95115 5.06905,4.58013 7.9059,8.0644 24.39124,29.95784 40.71104,80.42317 50.18058,155.17224 l 2.4947,19.69231 25.80948,0.24324 c 14.1952,0.13379 25.80722,-0.0723 25.80449,-0.45796 -0.003,-0.38566 -0.85171,-6.46906 -1.88664,-13.51867 -9.16517,-62.43057 -29.14573,-111.00547 -60.37652,-146.78181 -4.06771,-4.65975 -7.16391,-8.47228 -6.88045,-8.47228 1.08857,0 10.03073,4.85893 16.09056,8.74319 6.80907,4.3645 10.78787,9.1046 19.59955,23.34975 20.00337,32.33785 34.05475,75.03528 41.28309,125.44553 0.8307,5.7932 1.70121,10.84221 1.93448,11.22003 0.23328,0.37782 2.66673,0.68694 5.40766,0.68694 h 4.98351 v 6.86941 c 0,6.25879 0.16283,6.86941 1.83184,6.86941 1.81001,0 1.83184,0.61062 1.83184,51.22987 0,57.02399 0.66484,51.35347 -6.18247,52.73159 l -2.97674,0.59912 v -52.67741 -52.67742 l 2.51878,-0.38156 c 1.38533,-0.20986 -69.61002,-0.39551 -157.76744,-0.41255 -88.15742,-0.017 -159.564937,0.15751 -158.683363,0.38789 1.503065,0.39278 1.602862,3.69374 1.602862,53.01718 0,28.92908 -0.103041,52.54959 -0.22898,52.49004 -0.125939,-0.0595 -2.186762,-0.51631 -4.579607,-1.01501 z M 250.96243,234.93381 V 141.50984 H 256 h 5.03757 v 93.42397 93.42397 h 37.09481 37.09481 v -2.73055 c 0,-3.75501 -4.20189,-34.70223 -6.53124,-48.10308 -8.43342,-48.51771 -21.87739,-88.16931 -37.6459,-111.03281 C 281.22924,152.25171 265.45136,140.59392 256,140.59392 c -9.45318,0 -25.23924,11.66524 -35.04582,25.89742 -16.0873,23.34729 -29.35983,62.69302 -37.76377,111.94873 -2.7914,16.36051 -6.41285,43.115 -6.41584,47.39893 l -0.002,2.51878 h 37.09481 37.09481 z m -15.79964,-92.2235 c -0.88157,-0.23038 -2.32415,-0.23038 -3.20572,0 -0.88158,0.23038 -0.16029,0.41888 1.60286,0.41888 1.76315,0 2.48443,-0.1885 1.60286,-0.41888 z m 44.88014,0 c -0.88157,-0.23038 -2.32415,-0.23038 -3.20572,0 -0.88157,0.23038 -0.16029,0.41888 1.60286,0.41888 1.76315,0 2.48444,-0.1885 1.60286,-0.41888 z m -35.25037,-0.9293 c -1.12653,-0.2174 -3.18735,-0.22303 -4.57961,-0.0125 -1.39225,0.21053 -0.47055,0.38841 2.04823,0.39528 2.51878,0.007 3.65791,-0.16537 2.53138,-0.38278 z m 27.47764,0 c -1.12653,-0.2174 -3.18735,-0.22303 -4.57961,-0.0125 -1.39225,0.21053 -0.47055,0.38841 2.04823,0.39528 2.51878,0.007 3.65791,-0.16537 2.53138,-0.38278 z"
   id="path9340" /><path
   style="fill:#f9f9f9;fill-opacity:1;stroke-width:0.915921"
   d="m 143.79964,393.84615 v -52.66547 h 4.57961 4.57961 v 52.66547 52.66548 h -4.57961 -4.57961 z"
   id="path9416" /><path
   style="fill:#f9f9f9;fill-opacity:1;stroke-width:0.915921"
   d="m 197.839,393.84615 v -52.66547 h 4.5796 4.57961 v 52.66547 52.66548 h -4.57961 -4.5796 z"
   id="path9455" /><path
   style="fill:#f9f9f9;fill-opacity:1;stroke-width:0.915921"
   d="M 250.96243,393.84615 V 341.18068 H 256 h 5.03757 v 52.66547 52.66548 H 256 250.96243 Z"
   id="path9494" /><path
   style="fill:#f9f9f9;fill-opacity:1;stroke-width:0.915921"
   d="m 304.08587,393.84615 v -52.66547 h 4.5796 4.57961 v 52.66547 52.66548 h -4.57961 -4.5796 z"
   id="path9533" /><path
   style="fill:#f9f9f9;fill-opacity:1;stroke-width:0.915921"
   d="m 357.2093,393.84615 v -52.66547 h 4.57961 4.57961 v 52.66547 52.66548 h -4.57961 -4.57961 z"
   id="path9572" /></svg>
